<mxfile host="app.diagrams.net" agent="Mozilla/5.0 (X11; Linux x86_64; rv:128.0) Gecko/20100101 Firefox/128.0" version="28.1.0">
  <diagram name="Page-1" id="iA0EqysozytrNpIPGFQt">
    <mxGraphModel dx="1426" dy="795" grid="1" gridSize="10" guides="1" tooltips="1" connect="1" arrows="1" fold="1" page="1" pageScale="1" pageWidth="850" pageHeight="800" math="0" shadow="0">
      <root>
        <mxCell id="0" />
        <mxCell id="1" parent="0" />
        <mxCell id="JlvJfgP8zCbyhx2JuZmn-36" style="edgeStyle=orthogonalEdgeStyle;rounded=0;orthogonalLoop=1;jettySize=auto;html=1;entryX=0.5;entryY=0;entryDx=0;entryDy=0;fontSize=13;" parent="1" source="JlvJfgP8zCbyhx2JuZmn-24" target="JlvJfgP8zCbyhx2JuZmn-25" edge="1">
          <mxGeometry relative="1" as="geometry" />
        </mxCell>
        <mxCell id="JlvJfgP8zCbyhx2JuZmn-24" value="&lt;div&gt;IDLE&lt;/div&gt;" style="text;html=1;align=center;verticalAlign=middle;whiteSpace=wrap;rounded=0;strokeColor=default;fontSize=13;" parent="1" vertex="1">
          <mxGeometry x="160" y="100" width="60" height="30" as="geometry" />
        </mxCell>
        <mxCell id="JlvJfgP8zCbyhx2JuZmn-37" style="edgeStyle=orthogonalEdgeStyle;rounded=0;orthogonalLoop=1;jettySize=auto;html=1;exitX=0.5;exitY=1;exitDx=0;exitDy=0;entryX=0.5;entryY=0;entryDx=0;entryDy=0;fontSize=13;" parent="1" source="JlvJfgP8zCbyhx2JuZmn-25" target="JlvJfgP8zCbyhx2JuZmn-26" edge="1">
          <mxGeometry relative="1" as="geometry" />
        </mxCell>
        <mxCell id="JlvJfgP8zCbyhx2JuZmn-25" value="&lt;div&gt;P_TURN_WAIT&lt;/div&gt;" style="text;html=1;align=center;verticalAlign=middle;whiteSpace=wrap;rounded=0;strokeColor=default;fontSize=13;" parent="1" vertex="1">
          <mxGeometry x="135" y="160" width="110" height="30" as="geometry" />
        </mxCell>
        <mxCell id="JlvJfgP8zCbyhx2JuZmn-38" style="edgeStyle=orthogonalEdgeStyle;rounded=0;orthogonalLoop=1;jettySize=auto;html=1;entryX=0.5;entryY=0;entryDx=0;entryDy=0;fontSize=13;" parent="1" source="JlvJfgP8zCbyhx2JuZmn-26" target="JlvJfgP8zCbyhx2JuZmn-27" edge="1">
          <mxGeometry relative="1" as="geometry" />
        </mxCell>
        <mxCell id="JlvJfgP8zCbyhx2JuZmn-49" value="&lt;div&gt;valid move&lt;/div&gt;" style="edgeLabel;html=1;align=center;verticalAlign=middle;resizable=0;points=[];fontSize=13;" parent="JlvJfgP8zCbyhx2JuZmn-38" vertex="1" connectable="0">
          <mxGeometry x="0.3044" y="1" relative="1" as="geometry">
            <mxPoint x="-1" y="-12" as="offset" />
          </mxGeometry>
        </mxCell>
        <mxCell id="JlvJfgP8zCbyhx2JuZmn-59" style="edgeStyle=orthogonalEdgeStyle;rounded=0;orthogonalLoop=1;jettySize=auto;html=1;exitX=0;exitY=0.5;exitDx=0;exitDy=0;entryX=0;entryY=0.25;entryDx=0;entryDy=0;fontSize=13;" parent="1" edge="1">
          <mxGeometry relative="1" as="geometry">
            <mxPoint x="135" y="237.5" as="sourcePoint" />
            <mxPoint x="135" y="170" as="targetPoint" />
            <Array as="points">
              <mxPoint x="70" y="237.5" />
              <mxPoint x="70" y="170.5" />
            </Array>
          </mxGeometry>
        </mxCell>
        <mxCell id="JlvJfgP8zCbyhx2JuZmn-60" value="&lt;div&gt;invalid move&lt;/div&gt;" style="edgeLabel;html=1;align=center;verticalAlign=middle;resizable=0;points=[];fontSize=13;" parent="JlvJfgP8zCbyhx2JuZmn-59" vertex="1" connectable="0">
          <mxGeometry x="0.0108" relative="1" as="geometry">
            <mxPoint as="offset" />
          </mxGeometry>
        </mxCell>
        <mxCell id="JlvJfgP8zCbyhx2JuZmn-26" value="&lt;div&gt;P_VALIDATE&lt;/div&gt;" style="text;html=1;align=center;verticalAlign=middle;whiteSpace=wrap;rounded=0;strokeColor=default;fontSize=13;" parent="1" vertex="1">
          <mxGeometry x="135" y="220" width="110" height="30" as="geometry" />
        </mxCell>
        <mxCell id="JlvJfgP8zCbyhx2JuZmn-39" style="edgeStyle=orthogonalEdgeStyle;rounded=0;orthogonalLoop=1;jettySize=auto;html=1;exitX=0.5;exitY=1;exitDx=0;exitDy=0;fontSize=13;" parent="1" source="JlvJfgP8zCbyhx2JuZmn-27" target="JlvJfgP8zCbyhx2JuZmn-28" edge="1">
          <mxGeometry relative="1" as="geometry" />
        </mxCell>
        <mxCell id="JlvJfgP8zCbyhx2JuZmn-27" value="&lt;div&gt;P_APPLY&lt;/div&gt;" style="text;html=1;align=center;verticalAlign=middle;whiteSpace=wrap;rounded=0;strokeColor=default;fontSize=13;" parent="1" vertex="1">
          <mxGeometry x="135" y="300" width="110" height="30" as="geometry" />
        </mxCell>
        <mxCell id="JlvJfgP8zCbyhx2JuZmn-40" style="edgeStyle=orthogonalEdgeStyle;rounded=0;orthogonalLoop=1;jettySize=auto;html=1;exitX=0.5;exitY=1;exitDx=0;exitDy=0;entryX=0.5;entryY=0;entryDx=0;entryDy=0;fontSize=13;" parent="1" source="JlvJfgP8zCbyhx2JuZmn-28" target="JlvJfgP8zCbyhx2JuZmn-29" edge="1">
          <mxGeometry relative="1" as="geometry" />
        </mxCell>
        <mxCell id="JlvJfgP8zCbyhx2JuZmn-50" value="else" style="edgeLabel;html=1;align=center;verticalAlign=middle;resizable=0;points=[];fontSize=13;" parent="JlvJfgP8zCbyhx2JuZmn-40" vertex="1" connectable="0">
          <mxGeometry x="-0.2" y="3" relative="1" as="geometry">
            <mxPoint as="offset" />
          </mxGeometry>
        </mxCell>
        <mxCell id="JlvJfgP8zCbyhx2JuZmn-52" style="edgeStyle=orthogonalEdgeStyle;rounded=0;orthogonalLoop=1;jettySize=auto;html=1;entryX=0;entryY=0.5;entryDx=0;entryDy=0;fontSize=13;" parent="1" source="JlvJfgP8zCbyhx2JuZmn-28" target="JlvJfgP8zCbyhx2JuZmn-33" edge="1">
          <mxGeometry relative="1" as="geometry">
            <mxPoint x="-30" y="670" as="targetPoint" />
            <Array as="points">
              <mxPoint x="70" y="375" />
              <mxPoint x="70" y="670" />
            </Array>
          </mxGeometry>
        </mxCell>
        <mxCell id="JlvJfgP8zCbyhx2JuZmn-53" value="Player win/tie?" style="edgeLabel;html=1;align=center;verticalAlign=middle;resizable=0;points=[];fontSize=13;" parent="JlvJfgP8zCbyhx2JuZmn-52" vertex="1" connectable="0">
          <mxGeometry x="-0.1943" y="-1" relative="1" as="geometry">
            <mxPoint y="31" as="offset" />
          </mxGeometry>
        </mxCell>
        <mxCell id="JlvJfgP8zCbyhx2JuZmn-28" value="&lt;div&gt;P_CHECK&lt;/div&gt;" style="text;html=1;align=center;verticalAlign=middle;whiteSpace=wrap;rounded=0;strokeColor=default;fontSize=13;" parent="1" vertex="1">
          <mxGeometry x="135" y="360" width="110" height="30" as="geometry" />
        </mxCell>
        <mxCell id="JlvJfgP8zCbyhx2JuZmn-41" style="edgeStyle=orthogonalEdgeStyle;rounded=0;orthogonalLoop=1;jettySize=auto;html=1;exitX=0.5;exitY=1;exitDx=0;exitDy=0;fontSize=13;" parent="1" source="JlvJfgP8zCbyhx2JuZmn-29" target="JlvJfgP8zCbyhx2JuZmn-30" edge="1">
          <mxGeometry relative="1" as="geometry" />
        </mxCell>
        <mxCell id="JlvJfgP8zCbyhx2JuZmn-29" value="AI_REQ" style="text;html=1;align=center;verticalAlign=middle;whiteSpace=wrap;rounded=0;strokeColor=default;fontSize=13;" parent="1" vertex="1">
          <mxGeometry x="135" y="440" width="110" height="30" as="geometry" />
        </mxCell>
        <mxCell id="JlvJfgP8zCbyhx2JuZmn-42" style="edgeStyle=orthogonalEdgeStyle;rounded=0;orthogonalLoop=1;jettySize=auto;html=1;exitX=0.5;exitY=1;exitDx=0;exitDy=0;entryX=0.5;entryY=0;entryDx=0;entryDy=0;fontSize=13;" parent="1" source="JlvJfgP8zCbyhx2JuZmn-30" target="JlvJfgP8zCbyhx2JuZmn-31" edge="1">
          <mxGeometry relative="1" as="geometry" />
        </mxCell>
        <mxCell id="JlvJfgP8zCbyhx2JuZmn-30" value="AI_WAIT" style="text;html=1;align=center;verticalAlign=middle;whiteSpace=wrap;rounded=0;strokeColor=default;fontSize=13;" parent="1" vertex="1">
          <mxGeometry x="135" y="500" width="110" height="30" as="geometry" />
        </mxCell>
        <mxCell id="JlvJfgP8zCbyhx2JuZmn-43" style="edgeStyle=orthogonalEdgeStyle;rounded=0;orthogonalLoop=1;jettySize=auto;html=1;exitX=0.5;exitY=1;exitDx=0;exitDy=0;entryX=0.5;entryY=0;entryDx=0;entryDy=0;fontSize=13;" parent="1" source="JlvJfgP8zCbyhx2JuZmn-31" target="JlvJfgP8zCbyhx2JuZmn-32" edge="1">
          <mxGeometry relative="1" as="geometry" />
        </mxCell>
        <mxCell id="JlvJfgP8zCbyhx2JuZmn-31" value="AI_APPLY" style="text;html=1;align=center;verticalAlign=middle;whiteSpace=wrap;rounded=0;strokeColor=default;fontSize=13;" parent="1" vertex="1">
          <mxGeometry x="135" y="550" width="110" height="30" as="geometry" />
        </mxCell>
        <mxCell id="JlvJfgP8zCbyhx2JuZmn-44" style="edgeStyle=orthogonalEdgeStyle;rounded=0;orthogonalLoop=1;jettySize=auto;html=1;exitX=0.5;exitY=1;exitDx=0;exitDy=0;entryX=0.5;entryY=0;entryDx=0;entryDy=0;fontSize=13;" parent="1" source="JlvJfgP8zCbyhx2JuZmn-32" target="JlvJfgP8zCbyhx2JuZmn-33" edge="1">
          <mxGeometry relative="1" as="geometry" />
        </mxCell>
        <mxCell id="JlvJfgP8zCbyhx2JuZmn-61" style="edgeStyle=orthogonalEdgeStyle;rounded=0;orthogonalLoop=1;jettySize=auto;html=1;exitX=1;exitY=0.5;exitDx=0;exitDy=0;entryX=1;entryY=0.5;entryDx=0;entryDy=0;fontSize=13;" parent="1" source="JlvJfgP8zCbyhx2JuZmn-32" target="JlvJfgP8zCbyhx2JuZmn-25" edge="1">
          <mxGeometry relative="1" as="geometry">
            <Array as="points">
              <mxPoint x="310" y="615" />
              <mxPoint x="310" y="175" />
            </Array>
          </mxGeometry>
        </mxCell>
        <mxCell id="JlvJfgP8zCbyhx2JuZmn-62" value="else" style="edgeLabel;html=1;align=center;verticalAlign=middle;resizable=0;points=[];fontSize=13;" parent="JlvJfgP8zCbyhx2JuZmn-61" vertex="1" connectable="0">
          <mxGeometry x="0.0022" y="-1" relative="1" as="geometry">
            <mxPoint y="35" as="offset" />
          </mxGeometry>
        </mxCell>
        <mxCell id="JlvJfgP8zCbyhx2JuZmn-32" value="AI_CHECK" style="text;html=1;align=center;verticalAlign=middle;whiteSpace=wrap;rounded=0;strokeColor=default;fontSize=13;" parent="1" vertex="1">
          <mxGeometry x="135" y="600" width="110" height="30" as="geometry" />
        </mxCell>
        <mxCell id="JlvJfgP8zCbyhx2JuZmn-54" style="edgeStyle=orthogonalEdgeStyle;rounded=0;orthogonalLoop=1;jettySize=auto;html=1;exitX=1;exitY=0.5;exitDx=0;exitDy=0;entryX=1;entryY=0.25;entryDx=0;entryDy=0;fontSize=13;" parent="1" source="JlvJfgP8zCbyhx2JuZmn-33" target="JlvJfgP8zCbyhx2JuZmn-24" edge="1">
          <mxGeometry relative="1" as="geometry">
            <Array as="points">
              <mxPoint x="360" y="670" />
              <mxPoint x="360" y="108" />
            </Array>
          </mxGeometry>
        </mxCell>
        <mxCell id="JlvJfgP8zCbyhx2JuZmn-57" value="&lt;div&gt;reset&lt;/div&gt;" style="edgeLabel;html=1;align=center;verticalAlign=middle;resizable=0;points=[];fontSize=13;" parent="JlvJfgP8zCbyhx2JuZmn-54" vertex="1" connectable="0">
          <mxGeometry x="-0.1288" y="-3" relative="1" as="geometry">
            <mxPoint as="offset" />
          </mxGeometry>
        </mxCell>
        <mxCell id="JlvJfgP8zCbyhx2JuZmn-33" value="GAME_OVER" style="text;html=1;align=center;verticalAlign=middle;whiteSpace=wrap;rounded=0;strokeColor=default;fontSize=13;" parent="1" vertex="1">
          <mxGeometry x="135" y="655" width="110" height="30" as="geometry" />
        </mxCell>
        <mxCell id="JlvJfgP8zCbyhx2JuZmn-73" style="edgeStyle=orthogonalEdgeStyle;rounded=0;orthogonalLoop=1;jettySize=auto;html=1;exitX=0.5;exitY=1;exitDx=0;exitDy=0;" parent="1" edge="1">
          <mxGeometry relative="1" as="geometry">
            <mxPoint x="507.5" y="320" as="sourcePoint" />
            <mxPoint x="507.5" y="320" as="targetPoint" />
          </mxGeometry>
        </mxCell>
        <mxCell id="JlvJfgP8zCbyhx2JuZmn-78" value="&lt;div align=&quot;left&quot;&gt;&lt;font style=&quot;font-size: 13px;&quot;&gt;IDLE: wait for reset release / start condition.&lt;br&gt;&lt;br&gt;P_TURN_WAIT: wait for player confirm with a selected cell.&lt;br&gt;&lt;br&gt;P_VALIDATE: reject if occupied/out-of-range; else accept.&lt;br&gt;&lt;br&gt;P_APPLY: write player mark; move_cnt++.&lt;br&gt;&lt;br&gt;P_CHECK: win/tie? → GAME_OVER else AI_REQ.&lt;br&gt;&lt;br&gt;AI_REQ: assert ai_req, go to AI_WAIT.&lt;br&gt;&lt;br&gt;AI_WAIT: wait ai_ack, capture ai_cell.&lt;br&gt;&lt;br&gt;AI_APPLY: write AI mark; move_cnt++.&lt;br&gt;&lt;br&gt;AI_CHECK: win/tie? → GAME_OVER else back to P_TURN_WAIT.&lt;br&gt;&lt;br&gt;GAME_OVER: hold result; wait reset (or new-game signal).&lt;/font&gt;&lt;/div&gt;" style="text;html=1;align=left;verticalAlign=middle;whiteSpace=wrap;rounded=0;" parent="1" vertex="1">
          <mxGeometry x="410" y="205" width="420" height="340" as="geometry" />
        </mxCell>
        <mxCell id="FxWJzR2iY7AXji3FwWED-1" value="&lt;b&gt;&lt;font style=&quot;font-size: 20px;&quot;&gt;module game_fsm.v&lt;/font&gt;&lt;/b&gt;" style="text;html=1;align=center;verticalAlign=middle;whiteSpace=wrap;rounded=0;" vertex="1" parent="1">
          <mxGeometry x="293" y="50" width="265" height="30" as="geometry" />
        </mxCell>
      </root>
    </mxGraphModel>
  </diagram>
</mxfile>
